<svg width="182" height="60" viewBox="0 0 182 60" fill="none" xmlns="http://www.w3.org/2000/svg">
<path d="M11.928 22.808H5.256L4.152 26H0.624L6.648 9.224H10.56L16.584 26H13.032L11.928 22.808ZM11.016 20.12L8.592 13.112L6.168 20.12H11.016ZM21.7157 8.24V26H18.3557V8.24H21.7157ZM36.9154 19.064C36.9154 19.544 36.8834 19.976 36.8194 20.36H27.0994C27.1794 21.32 27.5154 22.072 28.1074 22.616C28.6994 23.16 29.4274 23.432 30.2914 23.432C31.5394 23.432 32.4274 22.896 32.9554 21.824H36.5794C36.1954 23.104 35.4594 24.16 34.3714 24.992C33.2834 25.808 31.9474 26.216 30.3634 26.216C29.0834 26.216 27.9314 25.936 26.9074 25.376C25.8994 24.8 25.1074 23.992 24.5314 22.952C23.9714 21.912 23.6914 20.712 23.6914 19.352C23.6914 17.976 23.9714 16.768 24.5314 15.728C25.0914 14.688 25.8754 13.888 26.8834 13.328C27.8914 12.768 29.0514 12.488 30.3634 12.488C31.6274 12.488 32.7554 12.76 33.7474 13.304C34.7554 13.848 35.5314 14.624 36.0754 15.632C36.6354 16.624 36.9154 17.768 36.9154 19.064ZM33.4354 18.104C33.4194 17.24 33.1074 16.552 32.4994 16.04C31.8914 15.512 31.1474 15.248 30.2674 15.248C29.4354 15.248 28.7314 15.504 28.1554 16.016C27.5954 16.512 27.2514 17.208 27.1234 18.104H33.4354ZM46.2319 26L43.4959 21.872L41.0719 26H37.4719L41.8159 19.328L37.4239 12.704H41.2159L43.9279 16.808L46.3759 12.704H49.9759L45.6079 19.328L50.0239 26H46.2319ZM53.0728 11.12C52.4808 11.12 51.9848 10.936 51.5848 10.568C51.2008 10.184 51.0088 9.712 51.0088 9.152C51.0088 8.592 51.2008 8.128 51.5848 7.76C51.9848 7.376 52.4808 7.184 53.0728 7.184C53.6648 7.184 54.1528 7.376 54.5368 7.76C54.9368 8.128 55.1368 8.592 55.1368 9.152C55.1368 9.712 54.9368 10.184 54.5368 10.568C54.1528 10.936 53.6648 11.12 53.0728 11.12ZM54.7288 12.704V26H51.3688V12.704H54.7288ZM62.6565 26.216C61.5685 26.216 60.5925 26.024 59.7285 25.64C58.8645 25.24 58.1765 24.704 57.6645 24.032C57.1685 23.36 56.8965 22.616 56.8485 21.8H60.2325C60.2965 22.312 60.5445 22.736 60.9765 23.072C61.4245 23.408 61.9765 23.576 62.6325 23.576C63.2725 23.576 63.7685 23.448 64.1205 23.192C64.4885 22.936 64.6725 22.608 64.6725 22.208C64.6725 21.776 64.4485 21.456 64.0005 21.248C63.5685 21.024 62.8725 20.784 61.9125 20.528C60.9205 20.288 60.1045 20.04 59.4645 19.784C58.8405 19.528 58.2965 19.136 57.8325 18.608C57.3845 18.08 57.1605 17.368 57.1605 16.472C57.1605 15.736 57.3685 15.064 57.7845 14.456C58.2165 13.848 58.8245 13.368 59.6085 13.016C60.4085 12.664 61.3445 12.488 62.4165 12.488C64.0005 12.488 65.2645 12.888 66.2085 13.688C67.1525 14.472 67.6725 15.536 67.7685 16.88H64.5525C64.5045 16.352 64.2805 15.936 63.8805 15.632C63.4965 15.312 62.9765 15.152 62.3205 15.152C61.7125 15.152 61.2405 15.264 60.9045 15.488C60.5845 15.712 60.4245 16.024 60.4245 16.424C60.4245 16.872 60.6485 17.216 61.0965 17.456C61.5445 17.68 62.2405 17.912 63.1845 18.152C64.1445 18.392 64.9365 18.64 65.5605 18.896C66.1845 19.152 66.7205 19.552 67.1685 20.096C67.6325 20.624 67.8725 21.328 67.8885 22.208C67.8885 22.976 67.6725 23.664 67.2405 24.272C66.8245 24.88 66.2165 25.36 65.4165 25.712C64.6325 26.048 63.7125 26.216 62.6565 26.216Z" fill="black"/>
<path d="M39 34.248V36.96H32.016V41.256H37.368V43.92H32.016V51H28.656V34.248H39ZM53.7426 44.064C53.7426 44.544 53.7106 44.976 53.6466 45.36H43.9266C44.0066 46.32 44.3426 47.072 44.9346 47.616C45.5266 48.16 46.2546 48.432 47.1186 48.432C48.3666 48.432 49.2546 47.896 49.7826 46.824H53.4066C53.0226 48.104 52.2866 49.16 51.1986 49.992C50.1106 50.808 48.7746 51.216 47.1906 51.216C45.9106 51.216 44.7586 50.936 43.7346 50.376C42.7266 49.8 41.9346 48.992 41.3586 47.952C40.7986 46.912 40.5186 45.712 40.5186 44.352C40.5186 42.976 40.7986 41.768 41.3586 40.728C41.9186 39.688 42.7026 38.888 43.7106 38.328C44.7186 37.768 45.8786 37.488 47.1906 37.488C48.4546 37.488 49.5826 37.76 50.5746 38.304C51.5826 38.848 52.3586 39.624 52.9026 40.632C53.4626 41.624 53.7426 42.768 53.7426 44.064ZM50.2626 43.104C50.2466 42.24 49.9346 41.552 49.3266 41.04C48.7186 40.512 47.9746 40.248 47.0946 40.248C46.2626 40.248 45.5586 40.504 44.9826 41.016C44.4226 41.512 44.0786 42.208 43.9506 43.104H50.2626ZM59.5551 39.768C59.9871 39.064 60.5471 38.512 61.2351 38.112C61.9391 37.712 62.7391 37.512 63.6351 37.512V41.04H62.7471C61.6911 41.04 60.8911 41.288 60.3471 41.784C59.8191 42.28 59.5551 43.144 59.5551 44.376V51H56.1951V37.704H59.5551V39.768ZM69.2582 39.768C69.6902 39.064 70.2502 38.512 70.9382 38.112C71.6422 37.712 72.4422 37.512 73.3382 37.512V41.04H72.4502C71.3942 41.04 70.5942 41.288 70.0502 41.784C69.5222 42.28 69.2582 43.144 69.2582 44.376V51H65.8982V37.704H69.2582V39.768ZM74.7373 44.304C74.7373 42.96 75.0013 41.768 75.5293 40.728C76.0733 39.688 76.8013 38.888 77.7133 38.328C78.6413 37.768 79.6733 37.488 80.8093 37.488C81.8013 37.488 82.6653 37.688 83.4013 38.088C84.1533 38.488 84.7533 38.992 85.2013 39.6V37.704H88.5853V51H85.2013V49.056C84.7693 49.68 84.1693 50.2 83.4013 50.616C82.6493 51.016 81.7773 51.216 80.7853 51.216C79.6653 51.216 78.6413 50.928 77.7133 50.352C76.8013 49.776 76.0733 48.968 75.5293 47.928C75.0013 46.872 74.7373 45.664 74.7373 44.304ZM85.2013 44.352C85.2013 43.536 85.0413 42.84 84.7213 42.264C84.4013 41.672 83.9693 41.224 83.4253 40.92C82.8813 40.6 82.2973 40.44 81.6733 40.44C81.0493 40.44 80.4733 40.592 79.9453 40.896C79.4173 41.2 78.9853 41.648 78.6493 42.24C78.3293 42.816 78.1693 43.504 78.1693 44.304C78.1693 45.104 78.3293 45.808 78.6493 46.416C78.9853 47.008 79.4173 47.464 79.9453 47.784C80.4893 48.104 81.0653 48.264 81.6733 48.264C82.2973 48.264 82.8813 48.112 83.4253 47.808C83.9693 47.488 84.4013 47.04 84.7213 46.464C85.0413 45.872 85.2013 45.168 85.2013 44.352ZM91.0029 44.304C91.0029 42.96 91.2669 41.768 91.7949 40.728C92.3389 39.688 93.0749 38.888 94.0029 38.328C94.9309 37.768 95.9629 37.488 97.0989 37.488C97.9629 37.488 98.7869 37.68 99.5709 38.064C100.355 38.432 100.979 38.928 101.443 39.552V33.24H104.851V51H101.443V49.032C101.027 49.688 100.443 50.216 99.6909 50.616C98.9389 51.016 98.0669 51.216 97.0749 51.216C95.9549 51.216 94.9309 50.928 94.0029 50.352C93.0749 49.776 92.3389 48.968 91.7949 47.928C91.2669 46.872 91.0029 45.664 91.0029 44.304ZM101.467 44.352C101.467 43.536 101.307 42.84 100.987 42.264C100.667 41.672 100.235 41.224 99.6909 40.92C99.1469 40.6 98.5629 40.44 97.9389 40.44C97.3149 40.44 96.7389 40.592 96.2109 40.896C95.6829 41.2 95.2509 41.648 94.9149 42.24C94.5949 42.816 94.4349 43.504 94.4349 44.304C94.4349 45.104 94.5949 45.808 94.9149 46.416C95.2509 47.008 95.6829 47.464 96.2109 47.784C96.7549 48.104 97.3309 48.264 97.9389 48.264C98.5629 48.264 99.1469 48.112 99.6909 47.808C100.235 47.488 100.667 47.04 100.987 46.464C101.307 45.872 101.467 45.168 101.467 44.352ZM107.269 44.304C107.269 42.96 107.533 41.768 108.061 40.728C108.605 39.688 109.333 38.888 110.245 38.328C111.173 37.768 112.205 37.488 113.341 37.488C114.333 37.488 115.197 37.688 115.933 38.088C116.685 38.488 117.285 38.992 117.733 39.6V37.704H121.117V51H117.733V49.056C117.301 49.68 116.701 50.2 115.933 50.616C115.181 51.016 114.309 51.216 113.317 51.216C112.197 51.216 111.173 50.928 110.245 50.352C109.333 49.776 108.605 48.968 108.061 47.928C107.533 46.872 107.269 45.664 107.269 44.304ZM117.733 44.352C117.733 43.536 117.573 42.84 117.253 42.264C116.933 41.672 116.501 41.224 115.957 40.92C115.413 40.6 114.829 40.44 114.205 40.44C113.581 40.44 113.005 40.592 112.477 40.896C111.949 41.2 111.517 41.648 111.181 42.24C110.861 42.816 110.701 43.504 110.701 44.304C110.701 45.104 110.861 45.808 111.181 46.416C111.517 47.008 111.949 47.464 112.477 47.784C113.021 48.104 113.597 48.264 114.205 48.264C114.829 48.264 115.413 48.112 115.957 47.808C116.501 47.488 116.933 47.04 117.253 46.464C117.573 45.872 117.733 45.168 117.733 44.352ZM131.766 37.512C133.35 37.512 134.63 38.016 135.606 39.024C136.582 40.016 137.07 41.408 137.07 43.2V51H133.71V43.656C133.71 42.6 133.446 41.792 132.918 41.232C132.39 40.656 131.67 40.368 130.758 40.368C129.83 40.368 129.094 40.656 128.55 41.232C128.022 41.792 127.758 42.6 127.758 43.656V51H124.398V37.704H127.758V39.36C128.206 38.784 128.774 38.336 129.462 38.016C130.166 37.68 130.934 37.512 131.766 37.512ZM145.353 51.216C144.265 51.216 143.289 51.024 142.425 50.64C141.561 50.24 140.873 49.704 140.361 49.032C139.865 48.36 139.593 47.616 139.545 46.8H142.929C142.993 47.312 143.241 47.736 143.673 48.072C144.121 48.408 144.673 48.576 145.329 48.576C145.969 48.576 146.465 48.448 146.817 48.192C147.185 47.936 147.369 47.608 147.369 47.208C147.369 46.776 147.145 46.456 146.697 46.248C146.265 46.024 145.569 45.784 144.609 45.528C143.617 45.288 142.801 45.04 142.161 44.784C141.537 44.528 140.993 44.136 140.529 43.608C140.081 43.08 139.857 42.368 139.857 41.472C139.857 40.736 140.065 40.064 140.481 39.456C140.913 38.848 141.521 38.368 142.305 38.016C143.105 37.664 144.041 37.488 145.113 37.488C146.697 37.488 147.961 37.888 148.905 38.688C149.849 39.472 150.369 40.536 150.465 41.88H147.249C147.201 41.352 146.977 40.936 146.577 40.632C146.193 40.312 145.673 40.152 145.017 40.152C144.409 40.152 143.937 40.264 143.601 40.488C143.281 40.712 143.121 41.024 143.121 41.424C143.121 41.872 143.345 42.216 143.793 42.456C144.241 42.68 144.937 42.912 145.881 43.152C146.841 43.392 147.633 43.64 148.257 43.896C148.881 44.152 149.417 44.552 149.865 45.096C150.329 45.624 150.569 46.328 150.585 47.208C150.585 47.976 150.369 48.664 149.937 49.272C149.521 49.88 148.913 50.36 148.113 50.712C147.329 51.048 146.409 51.216 145.353 51.216Z" fill="black"/>
<line x1="83" y1="19.5" x2="117" y2="19.5" stroke="black" stroke-width="3"/>
</svg>
