<svg width="749" height="201" viewBox="0 0 749 201" fill="none" xmlns="http://www.w3.org/2000/svg">
<mask id="path-1-outside-1_322_9" maskUnits="userSpaceOnUse" x="73" y="65" width="605" height="87" fill="black">
<rect fill="white" x="73" y="65" width="605" height="87"/>
<path d="M74.6727 131V68H88.3527L108.423 107.96L128.223 68H141.903V131H130.383V87.53L112.833 122H103.743L86.1927 87.53V131H74.6727ZM160.066 79.43C157.966 79.43 156.226 78.8 154.846 77.54C153.526 76.28 152.866 74.69 152.866 72.77C152.866 70.85 153.526 69.29 154.846 68.09C156.226 66.83 157.966 66.2 160.066 66.2C162.166 66.2 163.876 66.83 165.196 68.09C166.576 69.29 167.266 70.85 167.266 72.77C167.266 74.69 166.576 76.28 165.196 77.54C163.876 78.8 162.166 79.43 160.066 79.43ZM154.306 131V86.36H165.826V131H154.306ZM196.3 132.08C192.34 132.08 188.86 131.45 185.86 130.19C182.86 128.87 180.46 127.07 178.66 124.79C176.86 122.51 175.78 119.87 175.42 116.87H187.03C187.39 118.61 188.35 120.11 189.91 121.37C191.53 122.57 193.6 123.17 196.12 123.17C198.64 123.17 200.47 122.66 201.61 121.64C202.81 120.62 203.41 119.45 203.41 118.13C203.41 116.21 202.57 114.92 200.89 114.26C199.21 113.54 196.87 112.85 193.87 112.19C191.95 111.77 190 111.26 188.02 110.66C186.04 110.06 184.21 109.31 182.53 108.41C180.91 107.45 179.59 106.25 178.57 104.81C177.55 103.31 177.04 101.48 177.04 99.32C177.04 95.36 178.6 92.03 181.72 89.33C184.9 86.63 189.34 85.28 195.04 85.28C200.32 85.28 204.52 86.51 207.64 88.97C210.82 91.43 212.71 94.82 213.31 99.14H202.42C201.76 95.84 199.27 94.19 194.95 94.19C192.79 94.19 191.11 94.61 189.91 95.45C188.77 96.29 188.2 97.34 188.2 98.6C188.2 99.92 189.07 100.97 190.81 101.75C192.55 102.53 194.86 103.25 197.74 103.91C200.86 104.63 203.71 105.44 206.29 106.34C208.93 107.18 211.03 108.47 212.59 110.21C214.15 111.89 214.93 114.32 214.93 117.5C214.99 120.26 214.27 122.75 212.77 124.97C211.27 127.19 209.11 128.93 206.29 130.19C203.47 131.45 200.14 132.08 196.3 132.08ZM246.58 150.8V86.36H256.84L258.1 92.75C259.54 90.77 261.43 89.03 263.77 87.53C266.17 86.03 269.26 85.28 273.04 85.28C277.24 85.28 280.99 86.3 284.29 88.34C287.59 90.38 290.2 93.17 292.12 96.71C294.04 100.25 295 104.27 295 108.77C295 113.27 294.04 117.29 292.12 120.83C290.2 124.31 287.59 127.07 284.29 129.11C280.99 131.09 277.24 132.08 273.04 132.08C269.68 132.08 266.74 131.45 264.22 130.19C261.7 128.93 259.66 127.16 258.1 124.88V150.8H246.58ZM270.61 122C274.27 122 277.3 120.77 279.7 118.31C282.1 115.85 283.3 112.67 283.3 108.77C283.3 104.87 282.1 101.66 279.7 99.14C277.3 96.62 274.27 95.36 270.61 95.36C266.89 95.36 263.83 96.62 261.43 99.14C259.09 101.6 257.92 104.78 257.92 108.68C257.92 112.58 259.09 115.79 261.43 118.31C263.83 120.77 266.89 122 270.61 122ZM305.291 131V86.36H315.551L316.631 94.73C318.251 91.85 320.441 89.57 323.201 87.89C326.021 86.15 329.321 85.28 333.101 85.28V97.43H329.861C327.341 97.43 325.091 97.82 323.111 98.6C321.131 99.38 319.571 100.73 318.431 102.65C317.351 104.57 316.811 107.24 316.811 110.66V131H305.291ZM361.604 132.08C357.284 132.08 353.384 131.09 349.904 129.11C346.484 127.13 343.754 124.4 341.714 120.92C339.734 117.38 338.744 113.3 338.744 108.68C338.744 104.06 339.764 100.01 341.804 96.53C343.844 92.99 346.574 90.23 349.994 88.25C353.474 86.27 357.374 85.28 361.694 85.28C365.954 85.28 369.794 86.27 373.214 88.25C376.694 90.23 379.424 92.99 381.404 96.53C383.444 100.01 384.464 104.06 384.464 108.68C384.464 113.3 383.444 117.38 381.404 120.92C379.424 124.4 376.694 127.13 373.214 129.11C369.734 131.09 365.864 132.08 361.604 132.08ZM361.604 122.09C364.604 122.09 367.214 120.98 369.434 118.76C371.654 116.48 372.764 113.12 372.764 108.68C372.764 104.24 371.654 100.91 369.434 98.69C367.214 96.41 364.634 95.27 361.694 95.27C358.634 95.27 355.994 96.41 353.774 98.69C351.614 100.91 350.534 104.24 350.534 108.68C350.534 113.12 351.614 116.48 353.774 118.76C355.994 120.98 358.604 122.09 361.604 122.09ZM396.301 150.8L406.651 128.03H403.951L386.581 86.36H399.091L411.601 117.77L424.651 86.36H436.891L408.541 150.8H396.301ZM462.245 132.08C457.745 132.08 453.755 131.12 450.275 129.2C446.795 127.28 444.065 124.58 442.085 121.1C440.105 117.62 439.115 113.6 439.115 109.04C439.115 104.42 440.075 100.31 441.995 96.71C443.975 93.11 446.675 90.32 450.095 88.34C453.575 86.3 457.655 85.28 462.335 85.28C466.715 85.28 470.585 86.24 473.945 88.16C477.305 90.08 479.915 92.72 481.775 96.08C483.695 99.38 484.655 103.07 484.655 107.15C484.655 107.81 484.625 108.5 484.565 109.22C484.565 109.94 484.535 110.69 484.475 111.47H450.545C450.785 114.95 451.985 117.68 454.145 119.66C456.365 121.64 459.035 122.63 462.155 122.63C464.495 122.63 466.445 122.12 468.005 121.1C469.625 120.02 470.825 118.64 471.605 116.96H483.305C482.465 119.78 481.055 122.36 479.075 124.7C477.155 126.98 474.755 128.78 471.875 130.1C469.055 131.42 465.845 132.08 462.245 132.08ZM462.335 94.64C459.515 94.64 457.025 95.45 454.865 97.07C452.705 98.63 451.325 101.03 450.725 104.27H472.955C472.775 101.33 471.695 98.99 469.715 97.25C467.735 95.51 465.275 94.64 462.335 94.64ZM516.214 132.08C511.654 132.08 507.634 131.09 504.154 129.11C500.674 127.13 497.914 124.37 495.874 120.83C493.894 117.29 492.904 113.24 492.904 108.68C492.904 104.12 493.894 100.07 495.874 96.53C497.914 92.99 500.674 90.23 504.154 88.25C507.634 86.27 511.654 85.28 516.214 85.28C521.914 85.28 526.714 86.78 530.614 89.78C534.514 92.72 537.004 96.8 538.084 102.02H525.934C525.334 99.86 524.134 98.18 522.334 96.98C520.594 95.72 518.524 95.09 516.124 95.09C512.944 95.09 510.244 96.29 508.024 98.69C505.804 101.09 504.694 104.42 504.694 108.68C504.694 112.94 505.804 116.27 508.024 118.67C510.244 121.07 512.944 122.27 516.124 122.27C518.524 122.27 520.594 121.67 522.334 120.47C524.134 119.27 525.334 117.56 525.934 115.34H538.084C537.004 120.38 534.514 124.43 530.614 127.49C526.714 130.55 521.914 132.08 516.214 132.08ZM567.584 131C562.904 131 559.154 129.86 556.334 127.58C553.514 125.3 552.104 121.25 552.104 115.43V95.99H544.454V86.36H552.104L553.454 74.39H563.624V86.36H575.684V95.99H563.624V115.52C563.624 117.68 564.074 119.18 564.974 120.02C565.934 120.8 567.554 121.19 569.834 121.19H575.414V131H567.584ZM605.852 132.08C601.532 132.08 597.632 131.09 594.152 129.11C590.732 127.13 588.002 124.4 585.962 120.92C583.982 117.38 582.992 113.3 582.992 108.68C582.992 104.06 584.012 100.01 586.052 96.53C588.092 92.99 590.822 90.23 594.242 88.25C597.722 86.27 601.622 85.28 605.942 85.28C610.202 85.28 614.042 86.27 617.462 88.25C620.942 90.23 623.672 92.99 625.652 96.53C627.692 100.01 628.712 104.06 628.712 108.68C628.712 113.3 627.692 117.38 625.652 120.92C623.672 124.4 620.942 127.13 617.462 129.11C613.982 131.09 610.112 132.08 605.852 132.08ZM605.852 122.09C608.852 122.09 611.462 120.98 613.682 118.76C615.902 116.48 617.012 113.12 617.012 108.68C617.012 104.24 615.902 100.91 613.682 98.69C611.462 96.41 608.882 95.27 605.942 95.27C602.882 95.27 600.242 96.41 598.022 98.69C595.862 100.91 594.782 104.24 594.782 108.68C594.782 113.12 595.862 116.48 598.022 118.76C600.242 120.98 602.852 122.09 605.852 122.09ZM657.462 132.08C653.502 132.08 650.022 131.45 647.022 130.19C644.022 128.87 641.622 127.07 639.822 124.79C638.022 122.51 636.942 119.87 636.582 116.87H648.192C648.552 118.61 649.512 120.11 651.072 121.37C652.692 122.57 654.762 123.17 657.282 123.17C659.802 123.17 661.632 122.66 662.772 121.64C663.972 120.62 664.572 119.45 664.572 118.13C664.572 116.21 663.732 114.92 662.052 114.26C660.372 113.54 658.032 112.85 655.032 112.19C653.112 111.77 651.162 111.26 649.182 110.66C647.202 110.06 645.372 109.31 643.692 108.41C642.072 107.45 640.752 106.25 639.732 104.81C638.712 103.31 638.202 101.48 638.202 99.32C638.202 95.36 639.762 92.03 642.882 89.33C646.062 86.63 650.502 85.28 656.202 85.28C661.482 85.28 665.682 86.51 668.802 88.97C671.982 91.43 673.872 94.82 674.472 99.14H663.582C662.922 95.84 660.432 94.19 656.112 94.19C653.952 94.19 652.272 94.61 651.072 95.45C649.932 96.29 649.362 97.34 649.362 98.6C649.362 99.92 650.232 100.97 651.972 101.75C653.712 102.53 656.022 103.25 658.902 103.91C662.022 104.63 664.872 105.44 667.452 106.34C670.092 107.18 672.192 108.47 673.752 110.21C675.312 111.89 676.092 114.32 676.092 117.5C676.152 120.26 675.432 122.75 673.932 124.97C672.432 127.19 670.272 128.93 667.452 130.19C664.632 131.45 661.302 132.08 657.462 132.08Z"/>
</mask>
<path d="M74.6727 131H73.6727V132H74.6727V131ZM74.6727 68V67H73.6727V68H74.6727ZM88.3527 68L89.2464 67.5512L88.9695 67H88.3527V68ZM108.423 107.96L107.529 108.409L108.429 110.2L109.319 108.404L108.423 107.96ZM128.223 68V67H127.602L127.327 67.556L128.223 68ZM141.903 68H142.903V67H141.903V68ZM141.903 131V132H142.903V131H141.903ZM130.383 131H129.383V132H130.383V131ZM130.383 87.53H131.383L129.492 87.0763L130.383 87.53ZM112.833 122V123H113.446L113.724 122.454L112.833 122ZM103.743 122L102.852 122.454L103.13 123H103.743V122ZM86.1927 87.53L87.0839 87.0763L85.1927 87.53H86.1927ZM86.1927 131V132H87.1927V131H86.1927ZM75.6727 131V68H73.6727V131H75.6727ZM74.6727 69H88.3527V67H74.6727V69ZM87.4591 68.4488L107.529 108.409L109.316 107.511L89.2464 67.5512L87.4591 68.4488ZM109.319 108.404L129.119 68.444L127.327 67.556L107.527 107.516L109.319 108.404ZM128.223 69H141.903V67H128.223V69ZM140.903 68V131H142.903V68H140.903ZM141.903 130H130.383V132H141.903V130ZM131.383 131V87.53H129.383V131H131.383ZM129.492 87.0763L111.942 121.546L113.724 122.454L131.274 87.9837L129.492 87.0763ZM112.833 121H103.743V123H112.833V121ZM104.634 121.546L87.0839 87.0763L85.3016 87.9837L102.852 122.454L104.634 121.546ZM85.1927 87.53V131H87.1927V87.53H85.1927ZM86.1927 130H74.6727V132H86.1927V130ZM154.846 77.54L154.155 78.2634L154.163 78.271L154.172 78.2785L154.846 77.54ZM154.846 68.09L155.519 68.8299L155.52 68.8285L154.846 68.09ZM165.196 68.09L164.505 68.8134L164.522 68.8294L164.54 68.8446L165.196 68.09ZM165.196 77.54L164.522 76.8015L164.513 76.809L164.505 76.8166L165.196 77.54ZM154.306 131H153.306V132H154.306V131ZM154.306 86.36V85.36H153.306V86.36H154.306ZM165.826 86.36H166.826V85.36H165.826V86.36ZM165.826 131V132H166.826V131H165.826ZM160.066 78.43C158.182 78.43 156.693 77.8721 155.52 76.8015L154.172 78.2785C155.759 79.7279 157.75 80.43 160.066 80.43V78.43ZM155.536 76.8166C154.425 75.7561 153.866 74.4327 153.866 72.77H151.866C151.866 74.9473 152.626 76.8039 154.155 78.2634L155.536 76.8166ZM153.866 72.77C153.866 71.1076 154.424 69.8248 155.519 68.8299L154.173 67.3501C152.628 68.7552 151.866 70.5924 151.866 72.77H153.866ZM155.52 68.8285C156.693 67.7579 158.182 67.2 160.066 67.2V65.2C157.75 65.2 155.759 65.9021 154.172 67.3515L155.52 68.8285ZM160.066 67.2C161.95 67.2 163.4 67.7578 164.505 68.8134L165.886 67.3666C164.352 65.9022 162.381 65.2 160.066 65.2V67.2ZM164.54 68.8446C165.689 69.8441 166.266 71.123 166.266 72.77H168.266C168.266 70.577 167.463 68.7358 165.852 67.3354L164.54 68.8446ZM166.266 72.77C166.266 74.4178 165.688 75.7368 164.522 76.8015L165.87 78.2785C167.464 76.8232 168.266 74.9622 168.266 72.77H166.266ZM164.505 76.8166C163.4 77.8722 161.95 78.43 160.066 78.43V80.43C162.381 80.43 164.352 79.7278 165.886 78.2634L164.505 76.8166ZM155.306 131V86.36H153.306V131H155.306ZM154.306 87.36H165.826V85.36H154.306V87.36ZM164.826 86.36V131H166.826V86.36H164.826ZM165.826 130H154.306V132H165.826V130ZM185.86 130.19L185.457 131.105L185.465 131.109L185.473 131.112L185.86 130.19ZM178.66 124.79L177.875 125.41L177.875 125.41L178.66 124.79ZM175.42 116.87V115.87H174.293L174.427 116.989L175.42 116.87ZM187.03 116.87L188.009 116.667L187.844 115.87H187.03V116.87ZM189.91 121.37L189.282 122.148L189.298 122.161L189.315 122.174L189.91 121.37ZM201.61 121.64L200.962 120.878L200.953 120.886L200.943 120.895L201.61 121.64ZM200.89 114.26L200.496 115.179L200.51 115.185L200.524 115.191L200.89 114.26ZM193.87 112.19L194.085 111.213L194.084 111.213L193.87 112.19ZM188.02 110.66L187.73 111.617L187.73 111.617L188.02 110.66ZM182.53 108.41L182.02 109.27L182.039 109.281L182.058 109.291L182.53 108.41ZM178.57 104.81L177.743 105.372L177.748 105.38L177.754 105.388L178.57 104.81ZM181.72 89.33L181.073 88.5677L181.066 88.5738L181.72 89.33ZM207.64 88.97L207.021 89.7553L207.028 89.761L207.64 88.97ZM213.31 99.14V100.14H214.458L214.3 99.0024L213.31 99.14ZM202.42 99.14L201.439 99.3361L201.6 100.14H202.42V99.14ZM189.91 95.45L189.337 94.6308L189.327 94.6377L189.317 94.6449L189.91 95.45ZM197.74 103.91L197.965 102.936L197.963 102.935L197.74 103.91ZM206.29 106.34L205.961 107.284L205.974 107.289L205.987 107.293L206.29 106.34ZM212.59 110.21L211.845 110.878L211.851 110.884L211.857 110.89L212.59 110.21ZM214.93 117.5H213.93V117.511L213.93 117.522L214.93 117.5ZM212.77 124.97L211.941 124.41L211.941 124.41L212.77 124.97ZM206.29 130.19L205.882 129.277L205.882 129.277L206.29 130.19ZM196.3 131.08C192.445 131.08 189.101 130.467 186.247 129.268L185.473 131.112C188.619 132.433 192.235 133.08 196.3 133.08V131.08ZM186.263 129.275C183.393 128.012 181.131 126.306 179.445 124.17L177.875 125.41C179.789 127.834 182.327 129.728 185.457 131.105L186.263 129.275ZM179.445 124.17C177.764 122.041 176.752 119.576 176.413 116.751L174.427 116.989C174.808 120.164 175.956 122.979 177.875 125.41L179.445 124.17ZM175.42 117.87H187.03V115.87H175.42V117.87ZM186.051 117.073C186.464 119.068 187.566 120.762 189.282 122.148L190.538 120.592C189.134 119.458 188.316 118.152 188.009 116.667L186.051 117.073ZM189.315 122.174C191.146 123.53 193.44 124.17 196.12 124.17V122.17C193.76 122.17 191.914 121.61 190.505 120.566L189.315 122.174ZM196.12 124.17C198.737 124.17 200.867 123.647 202.277 122.385L200.943 120.895C200.073 121.673 198.543 122.17 196.12 122.17V124.17ZM202.258 122.402C203.634 121.232 204.41 119.801 204.41 118.13H202.41C202.41 119.099 201.986 120.008 200.962 120.878L202.258 122.402ZM204.41 118.13C204.41 117.024 204.167 116.02 203.618 115.177C203.066 114.329 202.255 113.722 201.256 113.329L200.524 115.191C201.205 115.458 201.654 115.826 201.942 116.268C202.233 116.715 202.41 117.316 202.41 118.13H204.41ZM201.284 113.341C199.52 112.585 197.111 111.879 194.085 111.213L193.655 113.167C196.629 113.821 198.9 114.495 200.496 115.179L201.284 113.341ZM194.084 111.213C192.191 110.799 190.266 110.296 188.31 109.703L187.73 111.617C189.734 112.224 191.709 112.741 193.656 113.167L194.084 111.213ZM188.31 109.703C186.388 109.12 184.619 108.395 183.002 107.529L182.058 109.291C183.801 110.225 185.692 111 187.73 111.617L188.31 109.703ZM183.04 107.55C181.532 106.656 180.32 105.55 179.386 104.232L177.754 105.388C178.86 106.95 180.288 108.244 182.02 109.27L183.04 107.55ZM179.397 104.248C178.51 102.943 178.04 101.318 178.04 99.32H176.04C176.04 101.642 176.59 103.677 177.743 105.372L179.397 104.248ZM178.04 99.32C178.04 95.6639 179.463 92.6053 182.374 90.0862L181.066 88.5738C177.737 91.4547 176.04 95.0561 176.04 99.32H178.04ZM182.367 90.0923C185.31 87.5939 189.49 86.28 195.04 86.28V84.28C189.19 84.28 184.49 85.6661 181.073 88.5677L182.367 90.0923ZM195.04 86.28C200.169 86.28 204.128 87.4741 207.021 89.7553L208.259 88.1847C204.912 85.5459 200.471 84.28 195.04 84.28V86.28ZM207.028 89.761C209.983 92.0467 211.752 95.1923 212.32 99.2776L214.3 99.0024C213.668 94.4477 211.657 90.8133 208.252 88.179L207.028 89.761ZM213.31 98.14H202.42V100.14H213.31V98.14ZM203.401 98.9439C203.026 97.069 202.106 95.5851 200.61 94.5939C199.143 93.622 197.223 93.19 194.95 93.19V95.19C196.997 95.19 198.482 95.583 199.505 96.2611C200.499 96.9199 201.154 97.911 201.439 99.3361L203.401 98.9439ZM194.95 93.19C192.677 93.19 190.767 93.6294 189.337 94.6308L190.483 96.2692C191.453 95.5906 192.903 95.19 194.95 95.19V93.19ZM189.317 94.6449C187.957 95.6466 187.2 96.9795 187.2 98.6H189.2C189.2 97.7005 189.583 96.9334 190.503 96.2551L189.317 94.6449ZM187.2 98.6C187.2 100.483 188.486 101.804 190.401 102.663L191.219 100.837C189.654 100.136 189.2 99.357 189.2 98.6H187.2ZM190.401 102.663C192.224 103.48 194.604 104.217 197.517 104.885L197.963 102.935C195.116 102.283 192.876 101.58 191.219 100.837L190.401 102.663ZM197.515 104.884C200.606 105.598 203.42 106.398 205.961 107.284L206.619 105.396C204 104.482 201.114 103.662 197.965 102.936L197.515 104.884ZM205.987 107.293C208.489 108.089 210.425 109.293 211.845 110.878L213.335 109.542C211.635 107.647 209.371 106.271 206.593 105.387L205.987 107.293ZM211.857 110.89C213.189 112.324 213.93 114.474 213.93 117.5H215.93C215.93 114.166 215.111 111.456 213.323 109.53L211.857 110.89ZM213.93 117.522C213.986 120.082 213.322 122.367 211.941 124.41L213.599 125.53C215.218 123.133 215.994 120.438 215.93 117.478L213.93 117.522ZM211.941 124.41C210.561 126.453 208.558 128.081 205.882 129.277L206.698 131.103C209.662 129.779 211.979 127.927 213.599 125.53L211.941 124.41ZM205.882 129.277C203.218 130.467 200.033 131.08 196.3 131.08V133.08C200.247 133.08 203.722 132.433 206.698 131.103L205.882 129.277ZM246.58 150.8H245.58V151.8H246.58V150.8ZM246.58 86.36V85.36H245.58V86.36H246.58ZM256.84 86.36L257.822 86.1665L257.663 85.36H256.84V86.36ZM258.1 92.75L257.119 92.9435L257.562 95.1901L258.909 93.3382L258.1 92.75ZM263.77 87.53L263.24 86.6819L263.231 86.6881L263.77 87.53ZM284.29 88.34L284.816 87.4894L284.816 87.4894L284.29 88.34ZM292.12 96.71L291.241 97.1868L291.241 97.1868L292.12 96.71ZM292.12 120.83L292.996 121.313L293 121.307L292.12 120.83ZM284.29 129.11L284.805 129.968L284.816 129.961L284.29 129.11ZM258.1 124.88L258.926 124.315L257.1 121.648V124.88H258.1ZM258.1 150.8V151.8H259.1V150.8H258.1ZM279.7 118.31L280.416 119.008L280.416 119.008L279.7 118.31ZM279.7 99.14L280.425 98.4503L279.7 99.14ZM261.43 99.14L260.706 98.4503L260.706 98.4508L261.43 99.14ZM261.43 118.31L260.698 118.99L260.706 118.999L260.715 119.008L261.43 118.31ZM247.58 150.8V86.36H245.58V150.8H247.58ZM246.58 87.36H256.84V85.36H246.58V87.36ZM255.859 86.5535L257.119 92.9435L259.082 92.5565L257.822 86.1665L255.859 86.5535ZM258.909 93.3382C260.267 91.4714 262.061 89.8138 264.31 88.3719L263.231 86.6881C260.8 88.2462 258.814 90.0686 257.292 92.1618L258.909 93.3382ZM264.3 88.378C266.497 87.0054 269.387 86.28 273.04 86.28V84.28C269.134 84.28 265.844 85.0546 263.24 86.682L264.3 88.378ZM273.04 86.28C277.071 86.28 280.636 87.2563 283.765 89.1906L284.816 87.4894C281.345 85.3437 277.41 84.28 273.04 84.28V86.28ZM283.765 89.1906C286.911 91.1353 289.401 93.794 291.241 97.1868L293 96.2332C291 92.546 288.27 89.6247 284.816 87.4894L283.765 89.1906ZM291.241 97.1868C293.073 100.564 294 104.417 294 108.77H296C296 104.123 295.008 99.9361 293 96.2332L291.241 97.1868ZM294 108.77C294 113.123 293.073 116.976 291.241 120.353L293 121.307C295.008 117.604 296 113.417 296 108.77H294ZM291.245 120.347C289.406 123.68 286.915 126.312 283.765 128.259L284.816 129.961C288.266 127.828 290.995 124.94 292.996 121.313L291.245 120.347ZM283.776 128.253C280.645 130.131 277.076 131.08 273.04 131.08V133.08C277.405 133.08 281.336 132.049 284.805 129.967L283.776 128.253ZM273.04 131.08C269.806 131.08 267.025 130.474 264.668 129.296L263.773 131.084C266.456 132.426 269.555 133.08 273.04 133.08V131.08ZM264.668 129.296C262.297 128.11 260.388 126.452 258.926 124.315L257.275 125.445C258.933 127.868 261.104 129.75 263.773 131.084L264.668 129.296ZM257.1 124.88V150.8H259.1V124.88H257.1ZM258.1 149.8H246.58V151.8H258.1V149.8ZM270.61 123C274.52 123 277.815 121.675 280.416 119.008L278.985 117.612C276.786 119.865 274.02 121 270.61 121V123ZM280.416 119.008C283.023 116.336 284.3 112.893 284.3 108.77H282.3C282.3 112.447 281.177 115.364 278.985 117.612L280.416 119.008ZM284.3 108.77C284.3 104.647 283.024 101.179 280.425 98.4503L278.976 99.8297C281.177 102.141 282.3 105.093 282.3 108.77H284.3ZM280.425 98.4503C277.825 95.721 274.528 94.36 270.61 94.36V96.36C274.013 96.36 276.776 97.519 278.976 99.8297L280.425 98.4503ZM270.61 94.36C266.638 94.36 263.309 95.7174 260.706 98.4503L262.155 99.8297C264.352 97.5226 267.143 96.36 270.61 96.36V94.36ZM260.706 98.4508C258.163 101.124 256.92 104.565 256.92 108.68H258.92C258.92 104.995 260.018 102.076 262.155 99.8292L260.706 98.4508ZM256.92 108.68C256.92 112.796 258.163 116.26 260.698 118.99L262.163 117.63C260.018 115.32 258.92 112.364 258.92 108.68H256.92ZM260.715 119.008C263.319 121.678 266.646 123 270.61 123V121C267.135 121 264.342 119.862 262.146 117.612L260.715 119.008ZM305.291 131H304.291V132H305.291V131ZM305.291 86.36V85.36H304.291V86.36H305.291ZM315.551 86.36L316.543 86.232L316.431 85.36H315.551V86.36ZM316.631 94.73L315.64 94.858L316.025 97.8472L317.503 95.2203L316.631 94.73ZM323.201 87.89L323.721 88.7442L323.727 88.741L323.201 87.89ZM333.101 85.28H334.101V84.28H333.101V85.28ZM333.101 97.43V98.43H334.101V97.43H333.101ZM323.111 98.6L323.478 99.5304L323.478 99.5304L323.111 98.6ZM318.431 102.65L317.572 102.139L317.566 102.15L317.56 102.16L318.431 102.65ZM316.811 131V132H317.811V131H316.811ZM306.291 131V86.36H304.291V131H306.291ZM305.291 87.36H315.551V85.36H305.291V87.36ZM314.56 86.488L315.64 94.858L317.623 94.602L316.543 86.232L314.56 86.488ZM317.503 95.2203C319.041 92.4862 321.111 90.3329 323.721 88.7442L322.681 87.0358C319.772 88.807 317.462 91.2138 315.76 94.2397L317.503 95.2203ZM323.727 88.741C326.367 87.1115 329.48 86.28 333.101 86.28V84.28C329.163 84.28 325.675 85.1884 322.676 87.039L323.727 88.741ZM332.101 85.28V97.43H334.101V85.28H332.101ZM333.101 96.43H329.861V98.43H333.101V96.43ZM329.861 96.43C327.239 96.43 324.861 96.836 322.745 97.6696L323.478 99.5304C325.322 98.804 327.444 98.43 329.861 98.43V96.43ZM322.745 97.6696C320.548 98.5351 318.819 100.039 317.572 102.139L319.291 103.161C320.324 101.421 321.715 100.225 323.478 99.5304L322.745 97.6696ZM317.56 102.16C316.362 104.29 315.811 107.155 315.811 110.66H317.811C317.811 107.325 318.341 104.85 319.303 103.14L317.56 102.16ZM315.811 110.66V131H317.811V110.66H315.811ZM316.811 130H305.291V132H316.811V130ZM349.904 129.11L349.403 129.975L349.409 129.979L349.904 129.11ZM341.714 120.92L340.841 121.408L340.846 121.417L340.851 121.426L341.714 120.92ZM341.804 96.53L342.667 97.0357L342.67 97.0293L341.804 96.53ZM349.994 88.25L349.499 87.3808L349.493 87.3846L349.994 88.25ZM373.214 88.25L372.713 89.1154L372.719 89.1192L373.214 88.25ZM381.404 96.53L380.531 97.0182L380.536 97.027L380.541 97.0357L381.404 96.53ZM381.404 120.92L380.538 120.421L380.535 120.425L381.404 120.92ZM373.214 129.11L372.719 128.241L372.719 128.241L373.214 129.11ZM369.434 118.76L370.141 119.467L370.15 119.458L369.434 118.76ZM369.434 98.69L368.717 99.3877L368.727 99.3971L369.434 98.69ZM353.774 98.69L353.058 97.9924L353.057 97.9926L353.774 98.69ZM353.774 118.76L353.048 119.448L353.057 119.458L353.067 119.467L353.774 118.76ZM361.604 131.08C357.443 131.08 353.716 130.128 350.399 128.241L349.409 129.979C353.052 132.052 357.125 133.08 361.604 133.08V131.08ZM350.405 128.245C347.138 126.353 344.531 123.748 342.577 120.414L340.851 121.426C342.977 125.052 345.83 127.907 349.403 129.975L350.405 128.245ZM342.587 120.432C340.701 117.061 339.744 113.153 339.744 108.68H337.744C337.744 113.447 338.767 117.699 340.841 121.408L342.587 120.432ZM339.744 108.68C339.744 104.212 340.729 100.341 342.667 97.0357L340.941 96.0243C338.799 99.6788 337.744 103.908 337.744 108.68H339.744ZM342.67 97.0293C344.626 93.6359 347.232 91.0045 350.495 89.1154L349.493 87.3846C345.916 89.4555 343.062 92.3441 340.938 96.0307L342.67 97.0293ZM350.489 89.1192C353.806 87.2316 357.533 86.28 361.694 86.28V84.28C357.215 84.28 353.142 85.3084 349.499 87.3808L350.489 89.1192ZM361.694 86.28C365.792 86.28 369.457 87.2304 372.713 89.1154L373.715 87.3846C370.131 85.3096 366.116 84.28 361.694 84.28V86.28ZM372.719 89.1192C376.039 91.0078 378.639 93.6351 380.531 97.0182L382.277 96.0418C380.209 92.3449 377.349 89.4522 373.709 87.3808L372.719 89.1192ZM380.541 97.0357C382.479 100.341 383.464 104.212 383.464 108.68H385.464C385.464 103.908 384.409 99.6788 382.267 96.0243L380.541 97.0357ZM383.464 108.68C383.464 113.148 382.479 117.052 380.538 120.421L382.27 121.419C384.409 117.708 385.464 113.452 385.464 108.68H383.464ZM380.535 120.425C378.644 123.749 376.043 126.35 372.719 128.241L373.709 129.979C377.345 127.91 380.204 125.051 382.273 121.415L380.535 120.425ZM372.719 128.241C369.4 130.13 365.702 131.08 361.604 131.08V133.08C366.026 133.08 370.068 132.05 373.709 129.979L372.719 128.241ZM361.604 123.09C364.883 123.09 367.743 121.865 370.141 119.467L368.727 118.053C366.685 120.095 364.325 121.09 361.604 121.09V123.09ZM370.15 119.458C372.614 116.928 373.764 113.276 373.764 108.68H371.764C371.764 112.964 370.694 116.032 368.718 118.062L370.15 119.458ZM373.764 108.68C373.764 104.086 372.615 100.457 370.141 97.9829L368.727 99.3971C370.693 101.363 371.764 104.394 371.764 108.68H373.764ZM370.15 97.9924C367.759 95.5367 364.928 94.27 361.694 94.27V96.27C364.34 96.27 366.669 97.2833 368.718 99.3876L370.15 97.9924ZM361.694 94.27C358.352 94.27 355.457 95.5277 353.058 97.9924L354.49 99.3876C356.531 97.2923 358.916 96.27 361.694 96.27V94.27ZM353.057 97.9926C350.65 100.467 349.534 104.093 349.534 108.68H351.534C351.534 104.387 352.578 101.353 354.491 99.3874L353.057 97.9926ZM349.534 108.68C349.534 113.27 350.651 116.917 353.048 119.448L354.5 118.072C352.577 116.043 351.534 112.97 351.534 108.68H349.534ZM353.067 119.467C355.465 121.865 358.325 123.09 361.604 123.09V121.09C358.883 121.09 356.523 120.095 354.481 118.053L353.067 119.467ZM396.301 150.8L395.391 150.386L394.748 151.8H396.301V150.8ZM406.651 128.03L407.561 128.444L408.204 127.03H406.651V128.03ZM403.951 128.03L403.028 128.415L403.285 129.03H403.951V128.03ZM386.581 86.36V85.36H385.081L385.658 86.7448L386.581 86.36ZM399.091 86.36L400.02 85.99L399.769 85.36H399.091V86.36ZM411.601 117.77L410.672 118.14L411.582 120.423L412.525 118.154L411.601 117.77ZM424.651 86.36V85.36H423.984L423.728 85.9763L424.651 86.36ZM436.891 86.36L437.806 86.7627L438.424 85.36H436.891V86.36ZM408.541 150.8V151.8H409.194L409.456 151.203L408.541 150.8ZM397.211 151.214L407.561 128.444L405.741 127.616L395.391 150.386L397.211 151.214ZM406.651 127.03H403.951V129.03H406.651V127.03ZM404.874 127.645L387.504 85.9752L385.658 86.7448L403.028 128.415L404.874 127.645ZM386.581 87.36H399.091V85.36H386.581V87.36ZM398.162 86.73L410.672 118.14L412.53 117.4L400.02 85.99L398.162 86.73ZM412.525 118.154L425.575 86.7437L423.728 85.9763L410.678 117.386L412.525 118.154ZM424.651 87.36H436.891V85.36H424.651V87.36ZM435.976 85.9573L407.626 150.397L409.456 151.203L437.806 86.7627L435.976 85.9573ZM408.541 149.8H396.301V151.8H408.541V149.8ZM450.275 129.2L450.758 128.324L450.758 128.324L450.275 129.2ZM441.995 96.71L441.119 96.228L441.113 96.2394L441.995 96.71ZM450.095 88.34L450.596 89.2054L450.601 89.2027L450.095 88.34ZM473.945 88.16L473.449 89.0282L473.449 89.0282L473.945 88.16ZM481.775 96.08L480.9 96.5643L480.905 96.5737L480.911 96.5829L481.775 96.08ZM484.565 109.22L483.569 109.137L483.565 109.178V109.22H484.565ZM484.475 111.47V112.47H485.401L485.472 111.547L484.475 111.47ZM450.545 111.47V110.47H449.474L449.547 111.539L450.545 111.47ZM454.145 119.66L453.469 120.397L453.479 120.406L454.145 119.66ZM468.005 121.1L468.552 121.937L468.56 121.932L468.005 121.1ZM471.605 116.96V115.96H470.967L470.698 116.539L471.605 116.96ZM483.305 116.96L484.263 117.245L484.646 115.96H483.305V116.96ZM479.075 124.7L478.312 124.054L478.31 124.056L479.075 124.7ZM471.875 130.1L471.458 129.191L471.451 129.194L471.875 130.1ZM454.865 97.07L455.451 97.8807L455.458 97.8754L455.465 97.87L454.865 97.07ZM450.725 104.27L449.742 104.088L449.523 105.27H450.725V104.27ZM472.955 104.27V105.27H474.018L473.953 104.209L472.955 104.27ZM469.715 97.25L470.375 96.4988L470.375 96.4988L469.715 97.25ZM462.245 131.08C457.891 131.08 454.072 130.153 450.758 128.324L449.792 130.076C453.439 132.087 457.599 133.08 462.245 133.08V131.08ZM450.758 128.324C447.441 126.494 444.844 123.927 442.954 120.605L441.216 121.595C443.286 125.233 446.149 128.066 449.792 130.076L450.758 128.324ZM442.954 120.605C441.071 117.296 440.115 113.451 440.115 109.04H438.115C438.115 113.749 439.139 117.944 441.216 121.595L442.954 120.605ZM440.115 109.04C440.115 104.562 441.044 100.618 442.877 97.1806L441.113 96.2394C439.106 100.002 438.115 104.278 438.115 109.04H440.115ZM442.871 97.1919C444.767 93.7449 447.34 91.0904 450.596 89.2054L449.594 87.4746C446.01 89.5496 443.183 92.4751 441.119 96.2281L442.871 97.1919ZM450.601 89.2027C453.904 87.2661 457.804 86.28 462.335 86.28V84.28C457.506 84.28 453.246 85.3339 449.589 87.4773L450.601 89.2027ZM462.335 86.28C466.564 86.28 470.259 87.2055 473.449 89.0282L474.441 87.2918C470.911 85.2745 466.866 84.28 462.335 84.28V86.28ZM473.449 89.0282C476.651 90.8581 479.13 93.3659 480.9 96.5643L482.65 95.5957C480.701 92.0741 477.959 89.3019 474.441 87.2918L473.449 89.0282ZM480.911 96.5829C482.736 99.7197 483.655 103.234 483.655 107.15H485.655C485.655 102.906 484.654 99.0403 482.639 95.5771L480.911 96.5829ZM483.655 107.15C483.655 107.78 483.626 108.442 483.569 109.137L485.562 109.303C485.624 108.558 485.655 107.84 485.655 107.15H483.655ZM483.565 109.22C483.565 109.912 483.536 110.637 483.478 111.393L485.472 111.547C485.534 110.743 485.565 109.968 485.565 109.22H483.565ZM484.475 110.47H450.545V112.47H484.475V110.47ZM449.547 111.539C449.802 115.223 451.085 118.212 453.469 120.397L454.821 118.923C452.885 117.148 451.769 114.677 451.543 111.401L449.547 111.539ZM453.479 120.406C455.892 122.558 458.803 123.63 462.155 123.63V121.63C459.267 121.63 456.838 120.722 454.811 118.914L453.479 120.406ZM462.155 123.63C464.64 123.63 466.793 123.088 468.552 121.937L467.458 120.263C466.098 121.152 464.35 121.63 462.155 121.63V123.63ZM468.56 121.932C470.325 120.756 471.651 119.237 472.512 117.381L470.698 116.539C470 118.043 468.926 119.284 467.45 120.268L468.56 121.932ZM471.605 117.96H483.305V115.96H471.605V117.96ZM482.347 116.675C481.548 119.357 480.206 121.815 478.312 124.054L479.838 125.346C481.904 122.905 483.382 120.203 484.263 117.245L482.347 116.675ZM478.31 124.056C476.491 126.216 474.213 127.929 471.458 129.191L472.292 131.009C475.297 129.631 477.819 127.744 479.84 125.344L478.31 124.056ZM471.451 129.194C468.783 130.443 465.721 131.08 462.245 131.08V133.08C465.969 133.08 469.327 132.397 472.299 131.006L471.451 129.194ZM462.335 93.64C459.309 93.64 456.606 94.5141 454.265 96.27L455.465 97.87C457.444 96.3859 459.721 95.64 462.335 95.64V93.64ZM454.28 96.2593C451.864 98.0036 450.377 100.658 449.742 104.088L451.708 104.452C452.273 101.402 453.546 99.2564 455.451 97.8807L454.28 96.2593ZM450.725 105.27H472.955V103.27H450.725V105.27ZM473.953 104.209C473.759 101.037 472.58 98.436 470.375 96.4988L469.055 98.0012C470.811 99.544 471.791 101.623 471.957 104.331L473.953 104.209ZM470.375 96.4988C468.191 94.5796 465.488 93.64 462.335 93.64V95.64C465.062 95.64 467.279 96.4404 469.055 98.0012L470.375 96.4988ZM504.154 129.11L504.649 128.241L504.649 128.241L504.154 129.11ZM495.874 120.83L495.001 121.318L495.008 121.329L495.874 120.83ZM495.874 96.53L495.008 96.0307L495.001 96.0418L495.874 96.53ZM504.154 88.25L504.649 89.1192L504.649 89.1192L504.154 88.25ZM530.614 89.78L530.004 90.5727L530.012 90.5785L530.614 89.78ZM538.084 102.02V103.02H539.312L539.063 101.817L538.084 102.02ZM525.934 102.02L524.971 102.288L525.174 103.02H525.934V102.02ZM522.334 96.98L521.748 97.7899L521.763 97.8013L521.779 97.812L522.334 96.98ZM508.024 98.69L507.29 98.011L507.29 98.011L508.024 98.69ZM508.024 118.67L508.758 117.991L508.758 117.991L508.024 118.67ZM522.334 120.47L521.779 119.638L521.773 119.642L521.766 119.647L522.334 120.47ZM525.934 115.34V114.34H525.169L524.969 115.079L525.934 115.34ZM538.084 115.34L539.062 115.55L539.321 114.34H538.084V115.34ZM530.614 127.49L529.997 126.703L529.997 126.703L530.614 127.49ZM516.214 131.08C511.803 131.08 507.958 130.124 504.649 128.241L503.66 129.979C507.31 132.056 511.505 133.08 516.214 133.08V131.08ZM504.649 128.241C501.327 126.351 498.694 123.72 496.741 120.331L495.008 121.329C497.135 125.02 500.022 127.909 503.66 129.979L504.649 128.241ZM496.747 120.342C494.86 116.969 493.904 113.091 493.904 108.68H491.904C491.904 113.389 492.928 117.611 495.001 121.318L496.747 120.342ZM493.904 108.68C493.904 104.269 494.86 100.391 496.747 97.0182L495.001 96.0418C492.928 99.7488 491.904 103.971 491.904 108.68H493.904ZM496.741 97.0293C498.694 93.6402 501.327 91.0093 504.649 89.1192L503.66 87.3808C500.022 89.4507 497.135 92.3398 495.008 96.0307L496.741 97.0293ZM504.649 89.1192C507.958 87.2362 511.803 86.28 516.214 86.28V84.28C511.505 84.28 507.31 85.3037 503.66 87.3808L504.649 89.1192ZM516.214 86.28C521.73 86.28 526.306 87.7277 530.004 90.5726L531.224 88.9874C527.122 85.8323 522.098 84.28 516.214 84.28V86.28ZM530.012 90.5785C533.7 93.3585 536.069 97.217 537.105 102.223L539.063 101.817C537.939 96.383 535.328 92.0815 531.216 88.9815L530.012 90.5785ZM538.084 101.02H525.934V103.02H538.084V101.02ZM526.898 101.752C526.236 99.3704 524.896 97.4862 522.889 96.1479L521.779 97.812C523.372 98.8738 524.432 100.35 524.971 102.288L526.898 101.752ZM522.921 96.1701C520.99 94.7722 518.709 94.09 516.124 94.09V96.09C518.339 96.09 520.198 96.6678 521.748 97.7899L522.921 96.1701ZM516.124 94.09C512.657 94.09 509.693 95.4128 507.29 98.011L508.758 99.369C510.795 97.1671 513.232 96.09 516.124 96.09V94.09ZM507.29 98.011C504.852 100.646 503.694 104.247 503.694 108.68H505.694C505.694 104.593 506.756 101.534 508.758 99.369L507.29 98.011ZM503.694 108.68C503.694 113.113 504.852 116.714 507.29 119.349L508.758 117.991C506.756 115.826 505.694 112.767 505.694 108.68H503.694ZM507.29 119.349C509.693 121.947 512.657 123.27 516.124 123.27V121.27C513.232 121.27 510.795 120.193 508.758 117.991L507.29 119.349ZM516.124 123.27C518.698 123.27 520.973 122.624 522.902 121.293L521.766 119.647C520.215 120.716 518.35 121.27 516.124 121.27V123.27ZM522.889 121.302C524.904 119.959 526.241 118.039 526.9 115.601L524.969 115.079C524.428 117.081 523.365 118.581 521.779 119.638L522.889 121.302ZM525.934 116.34H538.084V114.34H525.934V116.34ZM537.106 115.13C536.073 119.952 533.705 123.794 529.997 126.703L531.231 128.277C535.323 125.066 537.935 120.808 539.062 115.55L537.106 115.13ZM529.997 126.703C526.299 129.605 521.725 131.08 516.214 131.08V133.08C522.103 133.08 527.13 131.495 531.231 128.277L529.997 126.703ZM556.334 127.58L556.962 126.802L556.962 126.802L556.334 127.58ZM552.104 95.99H553.104V94.99H552.104V95.99ZM544.454 95.99H543.454V96.99H544.454V95.99ZM544.454 86.36V85.36H543.454V86.36H544.454ZM552.104 86.36V87.36H552.997L553.097 86.4721L552.104 86.36ZM553.454 74.39V73.39H552.56L552.46 74.2779L553.454 74.39ZM563.624 74.39H564.624V73.39H563.624V74.39ZM563.624 86.36H562.624V87.36H563.624V86.36ZM575.684 86.36H576.684V85.36H575.684V86.36ZM575.684 95.99V96.99H576.684V95.99H575.684ZM563.624 95.99V94.99H562.624V95.99H563.624ZM564.974 120.02L564.291 120.751L564.317 120.774L564.343 120.796L564.974 120.02ZM575.414 121.19H576.414V120.19H575.414V121.19ZM575.414 131V132H576.414V131H575.414ZM567.584 130C563.065 130 559.558 128.901 556.962 126.802L555.705 128.358C558.749 130.819 562.742 132 567.584 132V130ZM556.962 126.802C554.489 124.803 553.104 121.13 553.104 115.43H551.104C551.104 121.37 552.538 125.797 555.705 128.358L556.962 126.802ZM553.104 115.43V95.99H551.104V115.43H553.104ZM552.104 94.99H544.454V96.99H552.104V94.99ZM545.454 95.99V86.36H543.454V95.99H545.454ZM544.454 87.36H552.104V85.36H544.454V87.36ZM553.097 86.4721L554.447 74.5021L552.46 74.2779L551.11 86.2479L553.097 86.4721ZM553.454 75.39H563.624V73.39H553.454V75.39ZM562.624 74.39V86.36H564.624V74.39H562.624ZM563.624 87.36H575.684V85.36H563.624V87.36ZM574.684 86.36V95.99H576.684V86.36H574.684ZM575.684 94.99H563.624V96.99H575.684V94.99ZM562.624 95.99V115.52H564.624V95.99H562.624ZM562.624 115.52C562.624 117.762 563.08 119.621 564.291 120.751L565.656 119.289C565.067 118.739 564.624 117.598 564.624 115.52H562.624ZM564.343 120.796C565.579 121.801 567.494 122.19 569.834 122.19V120.19C567.613 120.19 566.288 119.799 565.604 119.244L564.343 120.796ZM569.834 122.19H575.414V120.19H569.834V122.19ZM574.414 121.19V131H576.414V121.19H574.414ZM575.414 130H567.584V132H575.414V130ZM594.152 129.11L593.651 129.975L593.658 129.979L594.152 129.11ZM585.962 120.92L585.089 121.408L585.094 121.417L585.099 121.426L585.962 120.92ZM586.052 96.53L586.915 97.0357L586.918 97.0293L586.052 96.53ZM594.242 88.25L593.747 87.3808L593.741 87.3846L594.242 88.25ZM617.462 88.25L616.961 89.1154L616.968 89.1192L617.462 88.25ZM625.652 96.53L624.779 97.0182L624.784 97.027L624.789 97.0357L625.652 96.53ZM625.652 120.92L624.786 120.421L624.783 120.425L625.652 120.92ZM617.462 129.11L616.968 128.241L616.968 128.241L617.462 129.11ZM613.682 118.76L614.389 119.467L614.399 119.458L613.682 118.76ZM613.682 98.69L612.965 99.3877L612.975 99.3971L613.682 98.69ZM598.022 98.69L597.306 97.9924L597.305 97.9926L598.022 98.69ZM598.022 118.76L597.296 119.448L597.305 119.458L597.315 119.467L598.022 118.76ZM605.852 131.08C601.691 131.08 597.964 130.128 594.647 128.241L593.658 129.979C597.3 132.052 601.373 133.08 605.852 133.08V131.08ZM594.653 128.245C591.386 126.353 588.779 123.748 586.825 120.414L585.099 121.426C587.225 125.052 590.078 127.907 593.651 129.975L594.653 128.245ZM586.835 120.432C584.949 117.061 583.992 113.153 583.992 108.68H581.992C581.992 113.447 583.015 117.699 585.089 121.408L586.835 120.432ZM583.992 108.68C583.992 104.212 584.977 100.341 586.915 97.0357L585.189 96.0243C583.047 99.6788 581.992 103.908 581.992 108.68H583.992ZM586.918 97.0293C588.874 93.6359 591.48 91.0045 594.743 89.1154L593.741 87.3846C590.164 89.4555 587.31 92.3441 585.186 96.0307L586.918 97.0293ZM594.737 89.1192C598.054 87.2316 601.781 86.28 605.942 86.28V84.28C601.463 84.28 597.39 85.3084 593.748 87.3808L594.737 89.1192ZM605.942 86.28C610.04 86.28 613.705 87.2304 616.961 89.1154L617.963 87.3846C614.379 85.3096 610.364 84.28 605.942 84.28V86.28ZM616.968 89.1192C620.287 91.0078 622.887 93.6351 624.779 97.0182L626.525 96.0418C624.457 92.3449 621.597 89.4522 617.957 87.3808L616.968 89.1192ZM624.789 97.0357C626.727 100.341 627.712 104.212 627.712 108.68H629.712C629.712 103.908 628.657 99.6788 626.515 96.0243L624.789 97.0357ZM627.712 108.68C627.712 113.148 626.727 117.052 624.786 120.421L626.518 121.419C628.657 117.708 629.712 113.452 629.712 108.68H627.712ZM624.783 120.425C622.892 123.749 620.291 126.35 616.968 128.241L617.957 129.979C621.593 127.91 624.452 125.051 626.521 121.415L624.783 120.425ZM616.968 128.241C613.648 130.13 609.95 131.08 605.852 131.08V133.08C610.274 133.08 614.316 132.05 617.957 129.979L616.968 128.241ZM605.852 123.09C609.131 123.09 611.991 121.865 614.389 119.467L612.975 118.053C610.933 120.095 608.573 121.09 605.852 121.09V123.09ZM614.399 119.458C616.862 116.928 618.012 113.276 618.012 108.68H616.012C616.012 112.964 614.942 116.032 612.966 118.062L614.399 119.458ZM618.012 108.68C618.012 104.086 616.863 100.457 614.389 97.9829L612.975 99.3971C614.941 101.363 616.012 104.394 616.012 108.68H618.012ZM614.399 97.9924C612.007 95.5367 609.176 94.27 605.942 94.27V96.27C608.589 96.27 610.917 97.2833 612.966 99.3876L614.399 97.9924ZM605.942 94.27C602.6 94.27 599.705 95.5277 597.306 97.9924L598.739 99.3876C600.779 97.2923 603.164 96.27 605.942 96.27V94.27ZM597.305 97.9926C594.898 100.467 593.782 104.093 593.782 108.68H595.782C595.782 104.387 596.826 101.353 598.739 99.3874L597.305 97.9926ZM593.782 108.68C593.782 113.27 594.899 116.917 597.296 119.448L598.748 118.072C596.825 116.043 595.782 112.97 595.782 108.68H593.782ZM597.315 119.467C599.713 121.865 602.573 123.09 605.852 123.09V121.09C603.131 121.09 600.771 120.095 598.729 118.053L597.315 119.467ZM647.022 130.19L646.619 131.105L646.627 131.109L646.635 131.112L647.022 130.19ZM639.822 124.79L639.037 125.41L639.037 125.41L639.822 124.79ZM636.582 116.87V115.87H635.455L635.589 116.989L636.582 116.87ZM648.192 116.87L649.171 116.667L649.006 115.87H648.192V116.87ZM651.072 121.37L650.444 122.148L650.46 122.161L650.477 122.174L651.072 121.37ZM662.772 121.64L662.124 120.878L662.115 120.886L662.105 120.895L662.772 121.64ZM662.052 114.26L661.658 115.179L661.672 115.185L661.686 115.191L662.052 114.26ZM655.032 112.19L655.247 111.213L655.246 111.213L655.032 112.19ZM649.182 110.66L648.892 111.617L648.892 111.617L649.182 110.66ZM643.692 108.41L643.182 109.27L643.201 109.281L643.22 109.291L643.692 108.41ZM639.732 104.81L638.905 105.372L638.911 105.38L638.916 105.388L639.732 104.81ZM642.882 89.33L642.235 88.5677L642.228 88.5738L642.882 89.33ZM668.802 88.97L668.183 89.7553L668.19 89.761L668.802 88.97ZM674.472 99.14V100.14H675.621L675.463 99.0024L674.472 99.14ZM663.582 99.14L662.602 99.3361L662.762 100.14H663.582V99.14ZM651.072 95.45L650.499 94.6308L650.489 94.6377L650.479 94.6449L651.072 95.45ZM658.902 103.91L659.127 102.936L659.125 102.935L658.902 103.91ZM667.452 106.34L667.123 107.284L667.136 107.289L667.149 107.293L667.452 106.34ZM673.752 110.21L673.008 110.878L673.013 110.884L673.019 110.89L673.752 110.21ZM676.092 117.5H675.092V117.511L675.092 117.522L676.092 117.5ZM673.932 124.97L673.104 124.41L673.104 124.41L673.932 124.97ZM667.452 130.19L667.044 129.277L667.044 129.277L667.452 130.19ZM657.462 131.08C653.607 131.08 650.263 130.467 647.409 129.268L646.635 131.112C649.781 132.433 653.397 133.08 657.462 133.08V131.08ZM647.425 129.275C644.555 128.012 642.293 126.306 640.607 124.17L639.037 125.41C640.951 127.834 643.489 129.728 646.619 131.105L647.425 129.275ZM640.607 124.17C638.926 122.041 637.914 119.576 637.575 116.751L635.589 116.989C635.97 120.164 637.118 122.979 639.037 125.41L640.607 124.17ZM636.582 117.87H648.192V115.87H636.582V117.87ZM647.213 117.073C647.626 119.068 648.728 120.762 650.444 122.148L651.7 120.592C650.296 119.458 649.478 118.152 649.171 116.667L647.213 117.073ZM650.477 122.174C652.308 123.53 654.602 124.17 657.282 124.17V122.17C654.922 122.17 653.076 121.61 651.667 120.566L650.477 122.174ZM657.282 124.17C659.899 124.17 662.029 123.647 663.439 122.385L662.105 120.895C661.236 121.673 659.705 122.17 657.282 122.17V124.17ZM663.42 122.402C664.796 121.232 665.572 119.801 665.572 118.13H663.572C663.572 119.099 663.148 120.008 662.124 120.878L663.42 122.402ZM665.572 118.13C665.572 117.024 665.329 116.02 664.78 115.177C664.228 114.329 663.417 113.722 662.418 113.329L661.686 115.191C662.367 115.458 662.816 115.826 663.104 116.268C663.395 116.715 663.572 117.316 663.572 118.13H665.572ZM662.446 113.341C660.683 112.585 658.273 111.879 655.247 111.213L654.817 113.167C657.791 113.821 660.062 114.495 661.658 115.179L662.446 113.341ZM655.246 111.213C653.353 110.799 651.428 110.296 649.472 109.703L648.892 111.617C650.896 112.224 652.871 112.741 654.818 113.167L655.246 111.213ZM649.472 109.703C647.55 109.12 645.782 108.395 644.164 107.529L643.22 109.291C644.963 110.225 646.854 111 648.892 111.617L649.472 109.703ZM644.202 107.55C642.694 106.656 641.482 105.55 640.548 104.232L638.916 105.388C640.023 106.95 641.45 108.244 643.182 109.27L644.202 107.55ZM640.559 104.248C639.672 102.943 639.202 101.318 639.202 99.32H637.202C637.202 101.642 637.752 103.677 638.905 105.372L640.559 104.248ZM639.202 99.32C639.202 95.6639 640.625 92.6053 643.536 90.0862L642.228 88.5738C638.899 91.4547 637.202 95.0561 637.202 99.32H639.202ZM643.529 90.0923C646.472 87.5939 650.652 86.28 656.202 86.28V84.28C650.352 84.28 645.652 85.6661 642.235 88.5677L643.529 90.0923ZM656.202 86.28C661.331 86.28 665.29 87.4741 668.183 89.7553L669.421 88.1847C666.074 85.5459 661.633 84.28 656.202 84.28V86.28ZM668.19 89.761C671.145 92.0467 672.914 95.1923 673.482 99.2776L675.463 99.0024C674.83 94.4477 672.819 90.8133 669.414 88.179L668.19 89.761ZM674.472 98.14H663.582V100.14H674.472V98.14ZM664.563 98.9439C664.188 97.069 663.268 95.5851 661.772 94.5939C660.305 93.622 658.385 93.19 656.112 93.19V95.19C658.159 95.19 659.644 95.583 660.667 96.2611C661.661 96.9199 662.317 97.911 662.602 99.3361L664.563 98.9439ZM656.112 93.19C653.839 93.19 651.929 93.6294 650.499 94.6308L651.646 96.2692C652.615 95.5906 654.065 95.19 656.112 95.19V93.19ZM650.479 94.6449C649.12 95.6466 648.362 96.9795 648.362 98.6H650.362C650.362 97.7005 650.745 96.9334 651.665 96.2551L650.479 94.6449ZM648.362 98.6C648.362 100.483 649.648 101.804 651.563 102.663L652.381 100.837C650.816 100.136 650.362 99.357 650.362 98.6H648.362ZM651.563 102.663C653.386 103.48 655.766 104.217 658.679 104.885L659.125 102.935C656.279 102.283 654.038 101.58 652.381 100.837L651.563 102.663ZM658.677 104.884C661.768 105.598 664.582 106.398 667.123 107.284L667.781 105.396C665.162 104.482 662.277 103.662 659.127 102.936L658.677 104.884ZM667.149 107.293C669.651 108.089 671.587 109.293 673.008 110.878L674.497 109.542C672.797 107.647 670.534 106.271 667.755 105.387L667.149 107.293ZM673.019 110.89C674.351 112.324 675.092 114.474 675.092 117.5H677.092C677.092 114.166 676.274 111.456 674.485 109.53L673.019 110.89ZM675.092 117.522C675.148 120.082 674.484 122.367 673.104 124.41L674.761 125.53C676.38 123.133 677.156 120.438 677.092 117.478L675.092 117.522ZM673.104 124.41C671.723 126.453 669.72 128.081 667.044 129.277L667.86 131.103C670.824 129.779 673.141 127.927 674.761 125.53L673.104 124.41ZM667.044 129.277C664.38 130.467 661.195 131.08 657.462 131.08V133.08C661.409 133.08 664.884 132.433 667.86 131.103L667.044 129.277Z" fill="white" mask="url(#path-1-outside-1_322_9)"/>
</svg>
